Coordinates
version=1
nRows=9
nColumns=36
inDegrees=yes

Units are S.I. units (second, meters, Newtons, ...)
If the header above contains a line with 'inDegrees', this indicates whether rotational values are in degrees (yes) or radians (no).

endheader
time	pelvis_tilt	pelvis_list	pelvis_rotation	pelvis_tx	pelvis_ty	pelvis_tz	hip_flexion_r	hip_adduction_r	hip_rotation_r	knee_angle_r	knee_angle_r_beta	ankle_angle_r	subtalar_angle_r	mtp_angle_r	hip_flexion_l	hip_adduction_l	hip_rotation_l	knee_angle_l	knee_angle_l_beta	ankle_angle_l	subtalar_angle_l	mtp_angle_l	lumbar_extension	lumbar_bending	lumbar_rotation	arm_flex_r	arm_add_r	arm_rot_r	elbow_flex_r	pro_sup_r	arm_flex_l	arm_add_l	arm_rot_l	elbow_flex_l	pro_sup_l
      0.00000000	      0.15637027	     -3.09895342	      1.90089723	     -0.89901100	      1.22478342	     -0.08308231	     -3.68758915	      3.57437826	     -1.14760637	      6.27067958	      0.10944400	      4.77549331	    -11.51133051	     -6.10555138	     -4.92403902	     -3.57529222	      0.89957371	      3.01310743	      0.05258865	     11.08651895	     -0.88596934	     -6.10555138	     -7.01745060	      3.89351743	     -0.67621028	      1.05284618	     -7.00423963	     13.58163810	     25.70076338	     76.71287632	     -0.89185975	     -5.36395638	     13.89562858	     26.41207499	     70.28323968
      0.00416670	     -2.77501751	     -2.27115131	      1.99353421	     -0.89703940	      1.22302982	     -0.08394883	      0.12582907	      2.72479024	     -1.10968290	      7.38848024	      0.12895331	      8.33799877	     -9.07858164	     -6.67052648	     -1.26100434	     -1.77469915	      2.70415729	      3.44894204	      0.06019539	     10.56480269	     -0.69360661	     -6.67052648	     -3.10209770	      3.07293938	     -0.93552167	     -0.37698667	     -5.64559145	      6.32842539	     25.98031075	     84.82843204	     -1.83999418	     -3.97874032	      6.78486413	     25.86534497	     77.71203049
      0.00833330	     -3.36914983	     -1.09696613	      2.06221016	     -0.89447202	      1.22510063	     -0.08201959	      0.13012524	      1.42600129	     -2.17255122	      6.31918409	      0.11029057	      8.80626747	     -7.61134961	     -6.73725929	     -1.14514201	     -0.50499335	      2.32348841	      2.86812288	      0.05005819	     10.04864067	     -0.19558858	     -6.73725929	     -1.89488355	      1.44189773	     -1.08548216	     -0.89837537	     -4.80058518	      4.37605318	     26.17954172	     83.80142377	     -2.20237130	     -4.44521172	      6.20920537	     25.79704522	     77.12639441
      0.01250000	     -3.07099856	     -0.53934700	      2.11565778	     -0.89596747	      1.22380866	     -0.08199603	     -0.62233043	      0.86017077	     -2.30718919	      5.68088460	      0.09915014	      9.00172701	     -7.19500737	     -6.82928101	     -2.08847744	      0.16318733	      2.54939292	      1.96885541	      0.03436301	      9.62759702	     -0.38746261	     -6.82928101	     -2.14963843	      0.69268136	     -0.84246535	     -1.28303397	     -4.54643119	      3.52656597	     26.90580951	     82.00494899	     -2.38695074	     -4.92159560	      6.11997180	     26.29032251	     75.83122592
      0.01666670	     -2.75393154	     -0.27947430	      2.29668164	     -0.89574089	      1.22618537	     -0.08280166	     -1.28906460	      0.64794651	     -2.51122513	      5.18560834	      0.09050594	      9.22890604	     -6.88126905	     -6.92647902	     -2.73179845	      0.50640103	      2.88112880	      1.45248677	      0.02535068	      9.18823050	     -1.20725496	     -6.92647902	     -2.54593729	      0.39784327	     -0.72204586	     -1.47015842	     -4.47034637	      3.32014306	     27.39259154	     80.48586655	     -2.17511030	     -5.13207021	      6.55233208	     26.28640731	     74.83358351
      0.02083330	     -2.44426633	     -0.20492133	      2.47641368	     -0.89589811	      1.22054727	     -0.08261044	     -1.83485414	      0.61496184	     -2.50955006	      4.72911606	      0.08253865	      9.63933283	     -6.64394001	     -6.94342242	     -3.18136188	      0.57272388	      3.34935041	      1.19964604	      0.02093777	      9.16148800	     -1.98018888	     -6.94342242	     -2.97683822	      0.30565100	     -0.49073022	     -1.79473291	     -4.65148680	      3.62168785	     28.41101463	     80.00643200	     -1.91531246	     -5.40414698	      7.25717464	     26.71296525	     74.46519582
      0.02500000	     -2.37922317	     -0.19990546	      2.62994988	     -0.89576141	      1.22250556	     -0.08275225	     -2.05359072	      0.63947451	     -2.40746217	      4.40260230	      0.07683991	      9.66896243	     -6.82721020	     -7.16825675	     -3.28215588	      0.57441102	      3.76655474	      1.06333698	      0.01855873	      9.02756435	     -2.59557032	     -7.16825675	     -3.05754716	      0.27736614	     -0.38868064	     -1.84928697	     -4.97131727	      5.55750242	     28.72335665	     76.93766999	     -1.49984288	     -5.61231806	      8.87691620	     26.59956454	     71.63371568
      0.02916670	     -2.31188194	     -0.20130696	      2.73434955	     -0.89579861	      1.22307371	     -0.08286756	     -2.21935885	      0.66408456	     -2.39947793	      4.21554940	      0.07357522	      9.80216502	     -6.79849494	     -7.37707360	     -3.35016150	      0.57788258	      4.04521863	      1.06371846	      0.01856539	      8.88361509	     -3.03665436	     -7.37707360	     -3.18350935	      0.26311710	     -0.38406027	     -1.89853879	     -4.94426849	      5.12686601	     28.97781621	     79.49190268	     -1.29485226	     -5.57418649	      8.43526762	     26.71576016	     71.84330518
      0.03333330	     -2.24455749	     -0.23962716	      2.74898928	     -0.89563167	      1.22161609	     -0.08240527	     -2.34765526	      0.74288577	     -2.30113888	      4.08298994	      0.07126162	      9.82857485	     -6.88756814	     -7.44504102	     -3.42151889	      0.50105648	      4.15686044	      1.06335688	      0.01855908	      8.75556416	     -3.36608666	     -7.44504102	     -3.28039547	      0.25594898	     -0.41384241	     -1.78098462	     -5.18008916	      6.65019138	     28.99533412	     77.95571704	     -1.11677600	     -5.66622953	      8.93880289	     26.76162123	     70.35295510
